<?xml version="1.0" encoding="UTF-8" standalone="no"?>
<svg
   xmlns:dc="http://purl.org/dc/elements/1.1/"
   xmlns:cc="http://creativecommons.org/ns#"
   xmlns:rdf="http://www.w3.org/1999/02/22-rdf-syntax-ns#"
   xmlns:svg="http://www.w3.org/2000/svg"
   xmlns="http://www.w3.org/2000/svg"
   xmlns:sodipodi="http://sodipodi.sourceforge.net/DTD/sodipodi-0.dtd"
   xmlns:inkscape="http://www.inkscape.org/namespaces/inkscape"
   data-name="Layer 1"
   width="884"
   height="710.00476"
   viewBox="0 0 884 710.00476"
   version="1.1"
   id="svg80"
   sodipodi:docname="undraw_connection.svg"
   inkscape:version="0.92.3 (2405546, 2018-03-11)">
  <metadata
     id="metadata86">
    <rdf:RDF>
      <cc:Work
         rdf:about="">
        <dc:format>image/svg+xml</dc:format>
        <dc:type
           rdf:resource="http://purl.org/dc/dcmitype/StillImage" />
        <dc:title></dc:title>
      </cc:Work>
    </rdf:RDF>
  </metadata>
  <defs
     id="defs84" />
  <sodipodi:namedview
     pagecolor="#ffffff"
     bordercolor="#666666"
     borderopacity="1"
     objecttolerance="10"
     gridtolerance="10"
     guidetolerance="10"
     inkscape:pageopacity="0"
     inkscape:pageshadow="2"
     inkscape:window-width="1920"
     inkscape:window-height="1001"
     id="namedview82"
     showgrid="false"
     inkscape:zoom="0.9918337"
     inkscape:cx="510.81806"
     inkscape:cy="356.73772"
     inkscape:window-x="-9"
     inkscape:window-y="-9"
     inkscape:window-maximized="1"
     inkscape:current-layer="svg80" />
  <path
     style="opacity:1;fill:none;fill-opacity:1;fill-rule:evenodd;stroke:#3f3d56;stroke-width:4;stroke-linecap:square;stroke-linejoin:miter;stroke-miterlimit:4;stroke-dasharray:none;stroke-dashoffset:0;stroke-opacity:1;paint-order:stroke markers fill"
     id="path4842-9"
     sodipodi:type="arc"
     sodipodi:cx="130.05998"
     sodipodi:cy="233.33586"
     sodipodi:rx="101.34293"
     sodipodi:ry="94.322388"
     sodipodi:start="0"
     sodipodi:end="3.098228"
     sodipodi:open="true"
     d="M 231.40292,233.33586 A 101.34293,94.322388 0 0 1 132.25716,327.63608 101.34293,94.322388 0 0 1 28.812321,237.42484" />
  <path
     style="opacity:1;fill:none;fill-opacity:1;fill-rule:evenodd;stroke:#3f3d56;stroke-width:4;stroke-linecap:square;stroke-linejoin:miter;stroke-miterlimit:4;stroke-dasharray:none;stroke-dashoffset:0;stroke-opacity:1;paint-order:stroke markers fill"
     id="path4842"
     sodipodi:type="arc"
     sodipodi:cx="705.2663"
     sodipodi:cy="499.76172"
     sodipodi:rx="101.34293"
     sodipodi:ry="94.322388"
     sodipodi:start="0"
     sodipodi:end="3.098228"
     sodipodi:open="true"
     d="M 806.60923,499.76172 A 101.34293,94.322388 0 0 1 707.46347,594.06194 101.34293,94.322388 0 0 1 604.01864,503.85069" />
  <path
     d="M 115.12532,310.97122 A 137.19911,137.19911 0 0 1 42.807657,240.02896 c -7.92978,-18.13106 -11.80123,-37.793 -14.00554,-57.45919 -2.16264,-19.29432 -2.60422,-39.647 5.69938,-57.1969 a 61.53473,61.53473 0 0 1 105.048533,-10.338 c 5.45032,7.34911 9.28237,16.16739 9.38015,25.31648 0.20512,19.1909 -15.226,34.59216 -21.99555,52.5506 -6.99568,18.55821 -4.47426,39.12053 -3.285,58.91781 1.18926,19.79728 0.43546,41.25953 -11.57691,57.04084"
     id="path2"
     inkscape:connector-curvature="0"
     style="fill:#f2f2f2" />
  <path
     d="m 693.94207,553.63607 a 137.1991,137.1991 0 0 0 83.13691,-57.887 c 10.84272,-16.55452 17.93929,-35.29539 23.39277,-54.31843 5.35038,-18.66337 9.18033,-38.65734 3.92011,-57.34632 A 61.53472,61.53472 0 0 0 702.53898,356.37048 c -6.59971,6.33712 -11.84885,14.39276 -13.47121,23.39739 -3.403,18.88788 9.24319,36.64711 12.92274,55.48308 3.80243,19.46505 -2.11318,39.31881 -6.5877,58.64044 -4.47452,19.32163 -7.31088,40.609 1.90112,58.17275"
     id="path4"
     inkscape:connector-curvature="0"
     style="fill:#f2f2f2" />
  <path
     d="m 154.18736,180.74657 -14.5705,28.29845 14.3868,8.24735 c 0,0 9.8695,-31.78674 10.16009,-32.993 a 7.93939,7.93939 0 1 0 -9.97639,-3.55276 z"
     id="path14"
     inkscape:connector-curvature="0"
     style="fill:#a0616a" />
  <path
     d="m 79.411867,184.5957 c 6.49952,24.0805 29.861113,39.37475 49.260533,57.71081 a 18.19655,18.19655 0 0 0 23.67918,-12.7603 l 6.53848,-25.58806 -16.61845,-0.44428 -6.87747,7.47446 -22.25281,-15.85711 z"
     id="path16"
     inkscape:connector-curvature="0"
     style="fill:#3f3d56" />
  <path
     d="m 679.48659,453.45676 a 10.85509,10.85509 0 0 1 10.13845,11.24482 10.414,10.414 0 0 1 -0.23432,1.70553 l 32.0415,20.186 -17.71427,7.83458 -27.71138,-20.37009 a 10.825,10.825 0 0 1 -7.65374,-10.77376 10.35947,10.35947 0 0 1 10.84978,-9.84478 q 0.14211,0.007 0.28398,0.0177 z"
     id="path18"
     inkscape:connector-curvature="0"
     style="fill:#ffb6b6" />
  <path
     d="m 710.38454,477.41822 -7.94107,16.38475 31.39839,20.20507 a 15.61915,15.61915 0 0 0 15.18325,1.01717 v 0 a 14.96555,14.96555 0 0 0 8.30012,-15.96237 l -10.18819,-58.16432 a 16.13612,16.13612 0 0 0 -17.716,-13.361 v 0 a 15.30328,15.30328 0 0 0 -13.5492,16.876 q 0.0259,0.23676 0.0591,0.47261 a 15.70016,15.70016 0 0 0 0.32082,1.66059 l 11.12228,41.36534 z"
     id="path20"
     inkscape:connector-curvature="0"
     style="fill:#6c63ff" />
  <path
     d="M 681.84783,484.06096 670.0239,453.55177 a 4.227,4.227 0 0 1 2.41124,-5.46287 l 6.6493,-2.577 a 4.227,4.227 0 0 1 5.46287,2.41124 l 11.82393,30.50919 A 4.227,4.227 0 0 1 693.96,483.8952 l -6.6493,2.577 a 4.227,4.227 0 0 1 -5.46287,-2.41124 z"
     id="path22"
     inkscape:connector-curvature="0"
     style="fill:#3f3d56" />
  <path
     d="m 673.81624,449.34345 a 2.278,2.278 0 0 0 -1.29938,2.94387 l 11.82393,30.50919 a 2.278,2.278 0 0 0 2.94387,1.29938 l 6.6493,-2.577 a 2.278,2.278 0 0 0 1.29938,-2.94387 l -11.82387,-30.50915 a 2.278,2.278 0 0 0 -2.94387,-1.29938 z"
     id="path24"
     inkscape:connector-curvature="0"
     style="fill:#6c63ff" />
  <rect
     x="-753.05627"
     y="-547.7218"
     width="44.903278"
     height="44.903278"
     transform="scale(-1)"
     id="rect26"
     style="fill:#ffb8b8" />
  <polygon
     points="582.5,614.473 572.95,661.153 584.57,665.062 599.649,620.243 "
     id="polygon28"
     style="fill:#ffb6b6"
     transform="translate(2.0164671,14.818842)" />
  <polygon
     points="612.454,615.526 629.013,660.202 640.944,657.38 630.062,611.362 "
     id="polygon30"
     style="fill:#ffb6b6"
     transform="translate(2.0164671,14.818842)" />
  <path
     d="m 751.4456,559.4527 c 9,60 -110.851,24.527 -110.851,24.527 l -37.57813,51.83914 -22,-4 c 0,0 9.89923,-31.12035 27.57809,-72.83914 7.851,-18.527 97,-14 97,-14 l 1.851,-14.527 51,-1 z"
     id="path32"
     inkscape:connector-curvature="0"
     style="fill:#2f2e41" />
  <path
     d="m 636.81147,571.10741 -32.641,0.751 c 5.23261,45.00684 9.846,62.96045 9.846,62.96045 l 19,-6 z"
     id="path34"
     inkscape:connector-curvature="0"
     style="fill:#2f2e41" />
  <path
     d="m 725.79355,429.85066 9.03811,-11.61773 12.89268,-0.559 1.28678,10.92665 6.38829,2.94575 a 171.32916,171.32916 0 0 1 2.88591,74.22664 v 0 0 a 6.60916,6.60916 0 0 0 -1.88,6.42 l 0.41415,1.65108 -0.0383,0.0605 a 9.67167,9.67167 0 0 0 -1.284,7.22046 v 0 l 3.05076,5.42093 a 15.39474,15.39474 0 0 1 -8.19434,22.01792 c -18.75278,6.79736 -36.332,9.32923 -49.33708,-9.745 l -4.08932,-66.47044 z"
     id="path36"
     inkscape:connector-curvature="0"
     style="fill:#6c63ff" />
  <circle
     cx="735.26178"
     cy="397.48038"
     r="23.83777"
     id="circle38"
     style="fill:#ffb8b8" />
  <path
     d="m 747.22857,368.74429 c 10.09326,0.1939 18.09854,9.55613 17.88038,20.91112 7.46919,7.79365 4.99943,17.33022 -1.24159,27.52808 -11.41665,1.32527 -14.08175,1.87748 -24.09385,5.96063 l -1.31913,-6.16418 -2.98978,8.02729 q -3.81665,1.7595 -7.57569,3.86276 c -1.80085,-8.2605 -1.35437,-16.28992 3.486,-23.28372 4.30017,-6.21326 -6.16458,-13.5896 -13.64852,-12.547 v 0 l 0.10964,-5.70656 -1.87981,5.67254 c -2.91724,2.14371 -6.14435,1.36762 -9.45355,-0.18161 v -6e-5 c -5.36614,-27.88936 36.17994,-35.51624 40.7259,-24.07929 z"
     id="path40"
     inkscape:connector-curvature="0"
     style="fill:#2f2e41" />
  <path
     d="m 591.86862,687.77622 -7.6404,-0.998 -0.42149,-7.39164 -4.43515,6.75724 -20.26433,-2.64706 a 4.5939,4.5939 0 0 1 -1.50369,-8.64189 l 17.64236,-9.0623 0.95261,-7.29261 16.88839,3.23931 z"
     id="path42"
     inkscape:connector-curvature="0"
     style="fill:#2f2e41" />
  <path
     d="m 647.34488,683.56857 -7.6423,0.98344 -2.29259,-7.03975 -2.56525,7.66488 -20.26935,2.60834 a 4.5939,4.5939 0 0 1 -3.65786,-7.97266 l 14.74794,-13.26187 -0.93868,-7.29442 17.15608,-1.17473 z"
     id="path44"
     inkscape:connector-curvature="0"
     style="fill:#2f2e41" />
  <path
     d="m 682.36116,459.03372 a 10.85509,10.85509 0 0 1 10.13845,11.24482 10.414,10.414 0 0 1 -0.23432,1.70554 l 32.0415,20.186 -17.71427,7.83458 -27.71138,-20.37009 a 10.825,10.825 0 0 1 -7.65374,-10.77377 10.35946,10.35946 0 0 1 10.84978,-9.84478 q 0.14211,0.007 0.28398,0.0177 z"
     id="path46"
     inkscape:connector-curvature="0"
     style="fill:#ffb6b6" />
  <path
     d="m 713.25911,482.99522 -7.94109,16.38472 31.39839,20.20507 a 15.61912,15.61912 0 0 0 15.18325,1.01716 v 0 a 14.96551,14.96551 0 0 0 8.30011,-15.96237 l -10.18816,-58.16432 a 16.13615,16.13615 0 0 0 -17.716,-13.361 v 0 a 15.30329,15.30329 0 0 0 -13.54919,16.87606 q 0.0259,0.23674 0.0591,0.47261 a 15.70114,15.70114 0 0 0 0.32082,1.66059 l 11.12228,41.36534 z"
     id="path48"
     inkscape:connector-curvature="0"
     style="fill:#6c63ff" />
  <polygon
     points="120.487,469.559 142.805,432.873 127.94,426.167 110.415,465.016 "
     id="polygon50"
     style="fill:#a0616a"
     transform="translate(2.0164671,14.818842)" />
  <path
     d="m 107.33647,490.18083 30.97168,13.97239 0.17671,-0.39168 a 13.22574,13.22574 0 0 0 -6.616,-17.49357 l -7.4e-4,-3.4e-4 -3.72086,-6.84437 -12.492,-0.46975 -2.70362,-1.21971 z"
     id="path52"
     inkscape:connector-curvature="0"
     style="fill:#2f2e41" />
  <polygon
     points="245.796,412.139 239.34,369.685 223.639,374.093 235.159,415.125 "
     id="polygon54"
     style="fill:#a0616a"
     transform="translate(2.0164671,14.818842)" />
  <path
     d="m 239.91579,441.1467 32.713,-9.18355 -0.11612,-0.41371 a 13.22574,13.22574 0 0 0 -16.30689,-9.15872 l -7.9e-4,2.2e-4 -7.248,-2.85606 -9.87631,7.66343 -2.85563,0.80166 z"
     id="path56"
     inkscape:connector-curvature="0"
     style="fill:#2f2e41" />
  <path
     d="m 76.174857,305.89512 c 0.272,7.87008 17.0098,29.1032 25.812633,32.14761 1.49629,0.51819 2.37077,0.80319 2.37077,0.80319 l 3.06383,-0.92627 37.10287,-11.22543 c 6.49686,3.82171 25.87739,5.76495 41.77957,6.73656 12.65693,0.77082 19.71194,7.38806 19.71194,7.38806 3.734,28.398 14.49881,49.10076 26.91276,74.54525 l 14.89814,-2.591 -14.07451,-94.77805 a 10.558,10.558 0 0 0 -7.77162,-8.66346 L 124.73631,282.84833 c 0,0 -5.58356,-1.01048 -17.35957,4.67026 -19.387013,9.35344 -31.396203,12.65045 -31.201883,18.37653 z"
     id="path58"
     inkscape:connector-curvature="0"
     style="fill:#2f2e41" />
  <path
     d="m 95.520867,304.37253 c -3.39548,7.10514 1.63633,33.66974 8.036143,40.43737 l 1.69875,1.15541 0.57444,0.29932 c 3.83908,12.98569 45.03722,50.96705 45.03722,50.96705 -13.916,17.72776 -26.3174,39.35538 -31.851,63.58716 l 16.091,5.87953 45.29446,-67.61815 A 10.55794,10.55794 0 0 0 180.27123,387.138 L 161.79289,360.81668 131.68335,302.4939 c -21.51517,-0.66368 -33.688813,-3.28923 -36.162483,1.87863 z"
     id="path60"
     inkscape:connector-curvature="0"
     style="fill:#2f2e41" />
  <path
     d="m 76.780247,308.98922 c -0.0498,0 -1.22918,-3.08718 -1.25314,-3.09414 -0.401,-0.112 -5.82971,-0.64774 -4.60886,-9.63549 l 1.562,-9.89155 -1.52489,-8.73407 -2.56494,-2.56493 4.12229,-4.1219 -2.52632,-18.69592 -0.96992,-37.43238 c -2.43435,-12.8579 -1.79862,-24.61783 9.99413,-30.28085 l 13.5197,-12.53994 15.384083,-0.18621 17.45357,10.34705 8.45624,16.85825 3.27993,45.68776 2.449,5.71441 -0.20979,0.18969 c -0.0162,0.0147 -1.64775,1.49013 -2.38065,2.30145 -0.35505,0.50418 0.311,4.26948 1.13354,7.46648 l 1.05471,7.89183 -2.658,1.89965 3.45584,4.08211 9.42132,15.92464 -0.56445,-0.14025 c -0.63592,-0.1584 -6.56075,8.735 -71.590003,18.62441 -0.30009,0.0456 -0.3106,0.3299 -0.43539,0.3299 z"
     id="path62"
     inkscape:connector-curvature="0"
     style="fill:#3f3d56" />
  <path
     d="m 151.24299,210.11104 -5.38337,-2.80906 a 3.59929,3.59929 0 0 1 -1.52426,-4.85074 l 12.88891,-24.7007 a 3.59928,3.59928 0 0 1 4.85074,-1.52426 l 5.38338,2.80907 a 3.59928,3.59928 0 0 1 1.52425,4.85074 l -12.8889,24.7007 a 3.59928,3.59928 0 0 1 -4.85075,1.52425 z"
     id="path64"
     inkscape:connector-curvature="0"
     style="fill:#3f3d56" />
  <path
     d="m 160.78772,177.15742 a 1.93971,1.93971 0 0 0 -2.614,0.8214 l -12.8889,24.7007 a 1.93971,1.93971 0 0 0 0.8214,2.614 l 5.38338,2.80906 a 1.93969,1.93969 0 0 0 2.614,-0.8214 l 12.8889,-24.7007 a 1.93969,1.93969 0 0 0 -0.8214,-2.614 z"
     id="path66"
     inkscape:connector-curvature="0"
     style="fill:#6c63ff" />
  <circle
     cx="103.6888"
     cy="146.44414"
     r="21.995819"
     id="circle68"
     style="fill:#a0616a" />
  <path
     d="m 92.870547,160.61113 a 5.25909,5.25909 0 0 0 -3.39908,-1.14146 2.735,2.735 0 0 0 -1.87144,1.24267 1.10585,1.10585 0 0 1 -0.97,0.41274 c -2.347,0.0855 -7.3496,-4.26852 -7.69167,-12.66961 -0.16257,-3.99269 -2.55144,-10.74884 1.25153,-14.40791 0.25492,-1.47672 3.22449,-16.73922 16.61049,-17.15987 13.704503,-0.43552 22.827333,2.3174 25.018853,7.54047 v 0 a 75.90505,75.90505 0 0 1 3.45791,12.76641 l 0.45956,2.58529 -1.07378,-2.39616 c -0.0202,-0.0449 -1.97866,-4.335 -5.61052,-5.76613 a 6.16209,6.16209 0 0 1 -0.525,2.01977 c -1.18511,2.56821 -4.17239,4.24419 -7.61069,4.27013 a 19.64532,19.64532 0 0 1 -6.91456,-1.48684 2.26327,2.26327 0 0 1 -2.13522,3.53571 l -0.63572,-0.0791 a 0.86423,0.86423 0 0 0 -0.51459,1.61968 l 0.55981,0.2992 -0.67937,0.32862 a 13.544,13.544 0 0 0 -7.845693,14.57142 l 0.792,4.45515 z"
     id="path70"
     inkscape:connector-curvature="0"
     style="fill:#2f2e41" />
  <path
     d="m 151.17962,204.16245 -21.02951,23.89269 11.94222,11.50576 c 0,0 17.32072,-28.42177 17.89661,-29.52083 a 7.93939,7.93939 0 1 0 -8.80932,-5.87762 z"
     id="path76"
     inkscape:connector-curvature="0"
     style="fill:#a0616a" />
  <path
     d="m 77.721727,189.66667 c 0.43308,24.93845 19.36144,45.46638 33.705613,67.97844 a 18.19656,18.19656 0 0 0 26.07551,-6.60281 l 12.57907,-23.22208 -16.00877,-4.48213 -8.4921,5.57237 -17.71581,-20.8035 z"
     id="path78"
     inkscape:connector-curvature="0"
     style="fill:#3f3d56" />
</svg>
