<?xml version="1.0" encoding="UTF-8" standalone="no"?>
<svg
   xmlns:dc="http://purl.org/dc/elements/1.1/"
   xmlns:cc="http://creativecommons.org/ns#"
   xmlns:rdf="http://www.w3.org/1999/02/22-rdf-syntax-ns#"
   xmlns:svg="http://www.w3.org/2000/svg"
   xmlns="http://www.w3.org/2000/svg"
   xmlns:sodipodi="http://sodipodi.sourceforge.net/DTD/sodipodi-0.dtd"
   xmlns:inkscape="http://www.inkscape.org/namespaces/inkscape"
   data-name="Layer 1"
   width="876.27167"
   height="701.47278"
   viewBox="0 0 876.27165 701.47277"
   version="1.1"
   id="svg120"
   sodipodi:docname="undraw_building_websites.svg"
   inkscape:version="0.92.3 (2405546, 2018-03-11)">
  <metadata
     id="metadata126">
    <rdf:RDF>
      <cc:Work
         rdf:about="">
        <dc:format>image/svg+xml</dc:format>
        <dc:type
           rdf:resource="http://purl.org/dc/dcmitype/StillImage" />
        <dc:title></dc:title>
      </cc:Work>
    </rdf:RDF>
  </metadata>
  <defs
     id="defs124" />
  <sodipodi:namedview
     pagecolor="#ffffff"
     bordercolor="#666666"
     borderopacity="1"
     objecttolerance="10"
     gridtolerance="10"
     guidetolerance="10"
     inkscape:pageopacity="0"
     inkscape:pageshadow="2"
     inkscape:window-width="1920"
     inkscape:window-height="1001"
     id="namedview122"
     showgrid="false"
     inkscape:zoom="0.71355922"
     inkscape:cx="437.54031"
     inkscape:cy="402.26704"
     inkscape:window-x="-9"
     inkscape:window-y="-9"
     inkscape:window-maximized="1"
     inkscape:current-layer="svg120" />
  <path
     d="m 473.73626,168.3833 -0.71,-18.03503 -0.6001,-14.9667 -0.41015,-10.47356 -0.81006,-20.41595 a 9.04565,5.6527561 0 0 0 -15.71,-3.28079 6.92326,4.3264442 0 0 0 -0.75,0.59991 8.93574,5.5840718 0 0 0 -1.56006,3.78073 l 1.78027,29.78966 0.89014,14.9667 1.13965,19.09113 a 12.0475,7.5286551 0 0 0 -0.88965,0.88113 11.248,7.0290361 0 0 0 -0.71,5.52425 11.31144,7.0686807 0 0 0 15.55957,4.14318 11.30069,7.0619628 0 0 0 2.78027,-11.60466 z"
     id="path86"
     inkscape:connector-curvature="0"
     style="fill:#ffb8b8;stroke-width:0.79051524" />
  <path
     d="m 504.97006,44.447239 c 7.51624,15.99516 -8.41069,20.5258 -26.65516,29.099004 -18.24447,8.5732 -31.8977,17.94247 -39.41393,1.94732 -7.51623,-15.995154 -13.61474,-47.742634 12.19523,-59.870924 26.69916,-12.5461009 46.35763,12.82944 53.87386,28.8246 z"
     id="path2"
     inkscape:connector-curvature="0"
     style="fill:#2f2e41" />
  <circle
     cx="467.74628"
     cy="51.342312"
     r="24.561029"
     id="circle4"
     style="fill:#ffb8b8" />
  <path
     d="m 589.4262,160.2655 c -0.85009,-1.11 -1.70019,-2.2 -2.56006,-3.26 q -1.66479,-2.07 -3.35009,-4.01 c -12.73,-14.69 -26.27,-23.94 -41.17969,-24.93 h -0.02 l -0.22021,-0.02 -29.71,28.96 -10.10009,9.84 0.22021,0.54 5.44971,13.57 h 95.49023 a 234.83392,234.83392 0 0 0 -14.02001,-20.69 z"
     id="path6"
     inkscape:connector-curvature="0"
     style="fill:#2f2e41" />
  <path
     d="m 441.0379,61.230529 v 0 l 8.792,-4.13144 -1.22476,-12.68333 5.87908,10.49623 4.20223,-1.97466 -0.7144,-7.39862 3.42957,6.12274 31.22444,-14.67258 v 0 a 26,26 0 0 0 -34.589,-12.47385 l -4.52533,2.12648 a 26,26 0 0 0 -12.47383,34.58903 z"
     id="path8"
     inkscape:connector-curvature="0"
     style="fill:#2f2e41" />
  <path
     d="M 660.79632,181.45573 H 114.95599 v -8.40039 a 16.57376,16.57376 0 0 1 16.56006,-16.5498 h 512.72021 a 16.57368,16.57368 0 0 1 16.56006,16.5498 z"
     id="path14"
     inkscape:connector-curvature="0"
     style="fill:#6c63ff" />
  <circle
     cx="145.05135"
     cy="169.00549"
     r="4.2834201"
     id="circle16"
     style="fill:#ffffff" />
  <circle
     cx="161.31015"
     cy="169.00549"
     r="4.2834201"
     id="circle18"
     style="fill:#ffffff" />
  <circle
     cx="177.56895"
     cy="169.00549"
     r="4.2834201"
     id="circle20"
     style="fill:#ffffff" />
  <polygon
     points="768.827,600.862 768.825,648.15 756.565,648.149 750.733,600.861 "
     id="polygon46"
     style="fill:#ffb8b8"
     transform="translate(0,12.253199)" />
  <path
     d="m 771.95147,672.28707 -39.53051,-10e-4 v -0.5 a 15.38605,15.38605 0 0 1 15.38647,-15.38623 h 0.001 l 24.1438,10e-4 z"
     id="path48"
     inkscape:connector-curvature="0"
     style="fill:#2f2e41" />
  <polygon
     points="818.827,600.862 818.825,648.15 806.565,648.149 800.733,600.861 "
     id="polygon50"
     style="fill:#ffb8b8"
     transform="translate(0,12.253199)" />
  <path
     d="m 821.95143,672.28707 -39.53047,-10e-4 v -0.5 a 15.38605,15.38605 0 0 1 15.38647,-15.38623 h 0.001 l 24.1438,10e-4 z"
     id="path52"
     inkscape:connector-curvature="0"
     style="fill:#2f2e41" />
  <path
     d="m 815.14973,639.90352 -11.35449,-3.4541 a 4.49323,4.49323 0 0 1 -3.16577,-3.833 L 790.04353,532.29024 a 0.47984,0.47984 0 0 0 -0.47851,-0.44726 0.46935,0.46935 0 0 0 -0.5105,0.40918 l -17.731,97.19922 a 4.50036,4.50036 0 0 1 -5.33471,3.59961 l -14.51144,-2.98926 a 4.51613,4.51613 0 0 1 -3.58179,-4.71192 l 10.7854,-159.3125 73.13795,-7.8916 -10.8679,177.72656 a 4.50464,4.50464 0 0 1 -4.4844,4.22754 4.52613,4.52613 0 0 1 -1.3169,-0.19629 z"
     id="path54"
     inkscape:connector-curvature="0"
     style="fill:#2f2e41" />
  <circle
     cx="815.08026"
     cy="302.74014"
     r="24.561029"
     id="circle56"
     style="fill:#ffb8b8" />
  <path
     d="m 758.56844,466.97286 15.85815,-99.85107 a 37.85746,37.85746 0 0 1 48.00534,-30.39942 v 0 a 37.74323,37.74323 0 0 1 26.6011,43.26221 l -16.5911,89.17187 z"
     id="path58"
     inkscape:connector-curvature="0"
     style="fill:#6c63ff" />
  <path
     d="m 821.86083,484.83882 a 10.0558,10.0558 0 0 0 1.747,-15.32 l 16.3962,-31.75128 -18.4649,1.97048 -12.73921,29.84946 a 10.11027,10.11027 0 0 0 13.06091,15.25138 z"
     id="path60"
     inkscape:connector-curvature="0"
     style="fill:#ffb8b8" />
  <path
     d="m 825.37173,463.91828 a 4.50552,4.50552 0 0 1 -2.4265,-1.15083 l -6.2732,-5.79662 a 4.51468,4.51468 0 0 1 -1.09178,-5.05417 l 12.53748,-29.71816 -1.7786,-58.71981 a 14.49652,14.49652 0 1 1 28.727,3.91856 l 3.041,36.91226 a 46.37346,46.37346 0 0 1 -8.9377,31.39683 l -19.5521,26.43232 a 4.505,4.505 0 0 1 -3.1951,1.80387 4.45452,4.45452 0 0 1 -1.0505,-0.0243 z"
     id="path62"
     inkscape:connector-curvature="0"
     style="fill:#6c63ff" />
  <path
     d="m 673.64091,289.35833 a 10.05575,10.05575 0 0 0 13.42647,7.58193 l 22.84575,27.47819 5.38477,-17.77183 -22.52025,-23.36914 a 10.11027,10.11027 0 0 0 -19.13674,6.08085 z"
     id="path64"
     inkscape:connector-curvature="0"
     style="fill:#ffb8b8" />
  <path
     d="m 691.5369,300.74823 a 4.50564,4.50564 0 0 1 2.00583,-1.78577 l 7.78377,-3.51672 a 4.51467,4.51467 0 0 1 5.07986,0.96521 l 22.478,23.13213 54.76621,21.25658 a 14.49652,14.49652 0 1 1 -14.80889,24.92573 l -35.17667,-11.59151 a 46.37351,46.37351 0 0 1 -25.42736,-20.47176 l -16.71728,-28.31048 a 4.50493,4.50493 0 0 1 -0.41535,-3.64558 4.45446,4.45446 0 0 1 0.43188,-0.95783 z"
     id="path66"
     inkscape:connector-curvature="0"
     style="fill:#6c63ff" />
  <polygon
     points="830.962,403.99 835.002,375.652 834.002,407.652 815.58,439.663 "
     id="polygon68"
     style="opacity:0.1"
     transform="translate(0,12.253199)" />
  <path
     d="m 812.2663,307.35586 a 6.42292,6.42292 0 0 1 -7.03053,-4.70224 9.76432,9.76432 0 0 0 -6.95075,-7.2736 c -4.5055,-1.02949 -10.01213,1.09128 -13.31351,-2.32232 a 6.63748,6.63748 0 0 1 -1.57539,-5.84234 c 0.60807,-3.31718 2.981,-5.8232 5.56326,-7.8275 a 34.06226,34.06226 0 0 1 18.8661,-7.05067 67.67657,67.67657 0 0 1 10.62084,0.52837 47.00933,47.00933 0 0 1 10.86371,1.98538 25.57605,25.57605 0 0 1 16.0017,18.68024 29.528,29.528 0 0 1 -6.0571,24.13034 31.70221,31.70221 0 0 1 -12.1606,9.25872 4.74429,4.74429 0 0 1 -3.6062,0.18291 c -2.9574,-1.17583 -2.4741,-4.83917 -1.1257,-7.28253 1.443,-2.61478 3.6634,-5.1464 2.5029,-8.32859 a 6.302,6.302 0 0 0 -3.1272,-3.3662 c -2.93989,-1.49928 -6.22818,-1.14456 -9.38873,-0.77957 z"
     id="path70"
     inkscape:connector-curvature="0"
     style="fill:#2f2e41" />
  <path
     d="m 665.43324,321.22583 h -304 a 16.51867,16.51867 0 0 1 -16.5,-16.5 v -65 a 16.51868,16.51868 0 0 1 16.5,-16.5 h 304 a 16.519,16.519 0 0 1 16.5,16.5 v 65 a 16.519,16.519 0 0 1 -16.5,16.5 z"
     id="path72"
     inkscape:connector-curvature="0"
     style="fill:#ffffff" />
  <path
     d="M 875.27163,673.72597 H 683.27166 a 1,1 0 0 1 0,-2 h 191.99997 a 1,1 0 0 1 0,2 z"
     id="path82"
     inkscape:connector-curvature="0"
     style="fill:#cccccc" />
  <path
     d="m 604.05609,144.16547 a 11.22094,11.22094 0 0 0 -7.25,-5.1 10.30111,10.30111 0 0 0 -1.65967,-0.21 L 518.95599,70.735479 a 9.01491,9.01491 0 0 0 -5.62988,-2.69 7.66989,7.66989 0 0 0 -1.27,-0.04 9.05493,9.05493 0 0 0 -5.96,15.480004 l 29.16992,25.429987 47.8999,41.75 a 11.91555,11.91555 0 0 0 0.3501,2.33 11.26607,11.26607 0 0 0 9.66992,8.37 11.09212,11.09212 0 0 0 6.05029,-1 11.40659,11.40659 0 0 0 3.87988,-2.97 c 0.10987,-0.13 0.21,-0.25 0.31006,-0.39 a 11.29281,11.29281 0 0 0 0.62989,-12.84 z"
     id="path84"
     inkscape:connector-curvature="0"
     style="fill:#ffb8b8" />
  <path
     d="m 542.33636,128.06549 -7.07031,-19.15 -11.43994,-31.019987 a 16.0055,16.0055 0 0 0 -9.9502,-9.680004 c -0.17969,-0.06 -0.36963,-0.12 -0.5498,-0.17005 a 15.984,15.984 0 0 0 -13.23975,1.82 l -38.53027,24.440004 a 16.09316,16.09316 0 0 0 -5.27,21.749987 276.323,276.323 0 0 0 15.73,24.19 c 4.49023,6.11 12.85009,6.76 14.30029,16.76 h 28.40967 l 28.76025,-25.82 z"
     id="path88"
     inkscape:connector-curvature="0"
     style="fill:#cccccc" />
  <circle
     cx="101.16464"
     cy="338.93552"
     r="23.171659"
     id="circle90"
     style="fill:#a0616a" />
  <path
     d="m 158.05134,322.98529 q 0.3425,0.27261 0.66395,0.57794 a 10.38021,10.38021 0 0 1 -0.41708,15.48365 9.72179,9.72179 0 0 1 -0.81382,0.61338 l 1.56823,52.94493 a 8.06132,8.06132 0 0 1 -5.545,7.867 l -0.0955,0.0205 -42.98869,4.578 a 8.89852,8.89852 0 1 1 -1.72218,-17.71279 l 30.64427,-2.69888 5.29962,-45.851 a 9.87574,9.87574 0 0 1 -0.97155,-0.99 10.38,10.38 0 0 1 14.3778,-14.83273 z"
     id="path92"
     inkscape:connector-curvature="0"
     style="fill:#a0616a" />
  <polygon
     points="139.326,604.561 139.328,649.174 150.895,649.174 156.397,604.561 "
     id="polygon94"
     style="fill:#a0616a"
     transform="translate(0,12.253199)" />
  <path
     d="m 136.37818,657.65103 22.778,-9.3e-4 h 9.2e-4 a 14.5157,14.5157 0 0 1 14.51609,14.51587 v 0.47171 l -37.29436,10e-4 z"
     id="path96"
     inkscape:connector-curvature="0"
     style="fill:#2f2e41" />
  <polygon
     points="47.189,594.849 24.366,633.182 34.304,639.099 61.857,603.582 "
     id="polygon98"
     style="fill:#a0616a"
     transform="translate(0,12.253199)" />
  <path
     d="m 23.76293,640.68148 19.57164,11.65289 7.9e-4,4.7e-4 a 14.5157,14.5157 0 0 1 5.04582,19.89892 l -0.24134,0.40531 -32.04449,-19.07934 z"
     id="path100"
     inkscape:connector-curvature="0"
     style="fill:#2f2e41" />
  <path
     d="m 153.62393,645.66981 h -12.95169 a 4.23772,4.23772 0 0 1 -4.22149,-3.79676 L 123.39356,519.13566 a 1.41541,1.41541 0 0 0 -2.69716,-0.433 L 97.141,570.86138 55.43742,638.86404 a 4.26564,4.26564 0 0 1 -5.32891,1.66575 l -16.66024,-7.33 a 4.24672,4.24672 0 0 1 -1.93478,-6.06413 l 38.33707,-64.19208 11.75766,-54.0852 c -3.69795,-23.455 12.155,-58.326 12.31575,-58.67614 l 0.0786,-0.17044 43.66751,-17.06765 0.219,0.2681 c 17.22117,56.51377 27.715,117.3322 19.96672,208.5678 a 4.27417,4.27417 0 0 1 -4.23182,3.88976 z"
     id="path102"
     inkscape:connector-curvature="0"
     style="fill:#2f2e41" />
  <path
     d="m 92.24326,455.72673 -0.20339,-0.42749 c -0.0972,-0.20454 -9.807,-20.68365 -17.292,-42.57146 a 32.28512,32.28512 0 0 1 2.23858,-25.87344 32.6374,32.6374 0 0 1 20.81263,-16.00426 v 0 a 32.677,32.677 0 0 1 37.92775,19.56974 c 5.93722,14.84708 4.045,30.69452 2.26429,43.15723 l -0.0355,0.24967 -0.22711,0.10872 z"
     id="path104"
     inkscape:connector-curvature="0"
     style="fill:#3f3d56" />
  <path
     d="M 129.25961,325.84631 H 92.46575 v -16.03835 c 8.07584,-3.20838 15.97847,-5.93693 20.75551,0 a 16.03844,16.03844 0 0 1 16.03835,16.03833 z"
     id="path106"
     inkscape:connector-curvature="0"
     style="fill:#2f2e41" />
  <path
     d="m 90.42872,306.97766 c -21.99607,0 -28.15279,27.57121 -28.15279,43.12552 0,8.67446 3.923,11.777 10.08753,12.8268 l 2.17708,-11.611 5.09905,12.11064 c 1.73162,0.009 3.55077,-0.0249 5.43671,-0.0599 l 1.72886,-3.55986 3.85527,3.496 c 15.44087,0.023 27.92061,2.27382 27.92061,-13.20269 0,-15.55431 -5.39939,-43.12552 -28.15232,-43.12552 z"
     id="path108"
     inkscape:connector-curvature="0"
     style="fill:#2f2e41" />
  <path
     d="M 193,673.72597 H 1 a 1,1 0 1 1 0,-2 h 192 a 1,1 0 0 1 0,2 z"
     id="path110"
     inkscape:connector-curvature="0"
     style="fill:#cccccc" />
  <path
     d="m 196.61024,344.72597 h -43 a 9.51081,9.51081 0 0 1 -9.5,-9.5 v -43 a 9.51081,9.51081 0 0 1 9.5,-9.5 h 43 a 9.51081,9.51081 0 0 1 9.5,9.5 v 43 a 9.51081,9.51081 0 0 1 -9.5,9.5 z"
     id="path112"
     inkscape:connector-curvature="0"
     style="fill:#ffffff" />
  <path
     d="m 196.61024,344.72597 h -43 a 9.51081,9.51081 0 0 1 -9.5,-9.5 v -43 a 9.51081,9.51081 0 0 1 9.5,-9.5 h 43 a 9.51081,9.51081 0 0 1 9.5,9.5 v 43 a 9.51081,9.51081 0 0 1 -9.5,9.5 z m -43,-60 a 7.50836,7.50836 0 0 0 -7.5,7.5 v 43 a 7.50836,7.50836 0 0 0 7.5,7.5 h 43 a 7.50836,7.50836 0 0 0 7.5,-7.5 v -43 a 7.50836,7.50836 0 0 0 -7.5,-7.5 z"
     id="path114"
     inkscape:connector-curvature="0"
     style="fill:#3f3d56" />
  <path
     d="m 189.11024,327.22597 h -28 a 3.00328,3.00328 0 0 1 -3,-3 v -21 a 3.00328,3.00328 0 0 1 3,-3 h 7.88232 a 2.98117,2.98117 0 0 1 2.55518,1.42724 l 2.19824,3.57276 h 15.36426 a 3.00328,3.00328 0 0 1 3,3 v 16 a 3.00328,3.00328 0 0 1 -3,3 z"
     id="path116"
     inkscape:connector-curvature="0"
     style="fill:#6c63ff" />
  <path
     d="m 188.19947,337.83512 q 0.20986,0.38415 0.38766,0.79029 a 10.38021,10.38021 0 0 1 -6.39269,14.10854 9.72022,9.72022 0 0 1 -0.98807,0.24953 l -19.09943,49.40482 a 8.06134,8.06134 0 0 1 -8.16324,5.09887 l -0.096,-0.0182 -41.39664,-12.46211 a 8.89853,8.89853 0 1 1 5.28606,-16.99313 l 29.29033,9.40382 22.6764,-40.20175 a 9.87622,9.87622 0 0 1 -0.51127,-1.28942 10.38005,10.38005 0 0 1 19.0069,-8.0913 z"
     id="path118"
     inkscape:connector-curvature="0"
     style="fill:#a0616a" />
</svg>
